<?xml version="1.0" encoding="UTF-8"?> <svg xmlns="http://www.w3.org/2000/svg" xmlns:xlink="http://www.w3.org/1999/xlink" width="357px" height="181px" viewBox="0 0 357 181" version="1.1"><title>Group</title><defs><path d="M7,0 L350,0 C353.865993,-7.10171439e-16 357,3.13400675 357,7 L357,180 L357,180 L0,180 L0,7 C-4.73447626e-16,3.13400675 3.13400675,7.10171439e-16 7,0 Z" id="path-1"></path></defs><g id="Brand-Resources" stroke="none" stroke-width="1" fill="none" fill-rule="evenodd"><g id="Press-Kit" transform="translate(-461.000000, -886.000000)"><g id="Group" transform="translate(461.000000, 886.500000)"><g id="Group-11"><mask id="mask-2" fill="white"><use xlink:href="#path-1"></use></mask><path stroke="#F6F6F9" d="M350,0.5 C351.794925,0.5 353.419925,1.22753728 354.596194,2.40380592 C355.772463,3.58007456 356.5,5.20507456 356.5,7 L356.5,7 L356.5,179.5 L0.5,179.5 L0.5,7 C0.5,5.20507456 1.22753728,3.58007456 2.40380592,2.40380592 C3.58007456,1.22753728 5.20507456,0.5 7,0.5 L7,0.5 Z"></path></g><g transform="translate(1.000000, 29.000000)" id="atoms/logos/strands/logo-strands-white-+-crif-clearspace-copy"><rect id="Rectangle" fill-opacity="0" fill="#00AAA1" x="0" y="0" width="354" height="120.36"></rect><g id="Strands+Crif_L_full-color-horizontal" transform="translate(31.860000, 31.860000)"><g id="Group" transform="translate(146.777279, 39.872568)"><path d="M10.9408786,5.16224552 L12.8285654,17.0277054 L10.0548215,17.0277054 L9.70810352,14.1961752 L4.56512011,14.1961752 L2.77374386,17.0277054 L0.154096881,17.0277054 L8.32123159,5.16224552 L10.9408786,5.16224552 Z M5.93272993,12.0773431 L9.45769608,12.0773431 L8.87983278,7.51222296 L5.93272993,12.0773431 Z" id="Shape" fill-opacity="0.6" fill="#023642"></path><g transform="translate(24.077638, 5.008149)" fill="#023642" id="Combined-Shape"><path d="M28.5849715,0.154096881 L25.4067233,12.0195567 L22.8063384,12.0195567 L25.9845866,0.154096881 L28.5849715,0.154096881 Z M11.7691493,0.211883212 L11.2298102,2.23440478 L7.12698076,2.23440478 C6.49133112,2.19588056 5.97125415,2.29219111 5.52822561,2.50407432 C5.08519708,2.69669542 4.7384791,2.98562707 4.44954745,3.37086928 C4.16061579,3.77537359 3.91020836,4.19914001 3.69832515,4.64216855 C3.48644194,5.08519708 3.29382084,5.58601194 3.13972395,6.08682681 C3.12046184,6.12535103 3.12046184,6.18313736 3.10119973,6.22166158 C3.08193762,6.2601858 3.08193762,6.31797213 3.06267551,6.35649635 L3.02415129,6.51059323 L3.02415129,6.51059323 C3.00488918,6.54911745 3.00488918,6.60690378 2.98562707,6.645428 L2.92784074,6.91509754 L2.92784074,6.91509754 C2.90857863,7.0114081 2.88931652,7.10771865 2.87005441,7.18476709 C2.83153019,7.37738819 2.79300597,7.57000929 2.77374386,7.76263039 C2.75448175,7.95525149 2.75448175,8.12861048 2.77374386,8.32123159 C2.77374386,8.49459058 2.79300597,8.66794957 2.8507923,8.84130856 C2.90857863,9.01466755 2.96636496,9.16876443 3.06267551,9.3035992 C3.15898607,9.43843397 3.27455873,9.57326875 3.39013139,9.6695793 C3.50570405,9.76588985 3.65980093,9.84293829 3.81389781,9.8622004 C3.9872568,9.90072462 4.16061579,9.91998673 4.33397478,9.93924884 C4.50733378,9.95851095 4.69995488,9.95851095 4.87331387,9.95851095 L5.02741075,9.95851095 L5.02741075,9.95851095 L9.13024021,9.93924884 L8.59090113,12.0002946 L4.372499,12.0002946 C4.02578102,12.0002946 3.69832515,11.9810325 3.39013139,11.9617704 C3.06267551,11.9425083 2.75448175,11.884722 2.4655501,11.8269356 C2.17661845,11.7691493 1.88768679,11.6728388 1.65654147,11.538004 C1.40613404,11.4031692 1.17498872,11.2105481 0.963105508,10.9986649 C0.712698076,10.7289954 0.500814864,10.4400637 0.365980093,10.1126078 C0.211883212,9.78515196 0.134834771,9.41917186 0.115572661,9.03392966 C0.0963105508,8.64868746 0.0963105508,8.26344526 0.115572661,7.85894094 C0.134834771,7.45443663 0.211883212,7.04993232 0.327455873,6.645428 C0.346717983,6.60690378 0.346717983,6.54911745 0.346717983,6.51059323 C0.346717983,6.47206901 0.365980093,6.41428268 0.365980093,6.37575846 C0.385242203,6.33723424 0.385242203,6.29871002 0.404504313,6.2601858 C0.423766423,6.22166158 0.423766423,6.16387525 0.443028534,6.12535103 C0.462290644,6.08682681 0.462290644,6.04830259 0.481552754,6.00977837 C0.500814864,5.97125415 0.520076974,5.93272993 0.520076974,5.89420571 C0.539339084,5.85568149 0.539339084,5.81715727 0.558601194,5.77863305 C0.577863305,5.74010883 0.597125415,5.70158461 0.597125415,5.66306038 C0.905319177,4.71921699 1.27129927,3.91020836 1.7143278,3.23603451 C2.15735634,2.54259854 2.6581712,1.98399735 3.2167724,1.54096881 C3.77537359,1.09794028 4.43028534,0.770484406 5.16224552,0.558601194 C5.89420571,0.346717983 6.72247644,0.231145322 7.62779562,0.231145322 L11.7691493,0.211883212 Z M19.7244008,0.134834771 L19.7244008,0.154096881 C19.7821871,0.173358991 19.8399735,0.173358991 19.8977598,0.173358991 L20.2252157,0.173358991 L20.2252157,0.173358991 C20.2508985,0.186200398 20.2680203,0.190480867 20.2879959,0.19190769 L20.4178368,0.192621102 L20.4178368,0.192621102 C20.62972,0.211883212 20.8608653,0.231145322 21.0727485,0.269669542 C21.2846317,0.308193762 21.4965149,0.346717983 21.689136,0.404504313 C21.8817571,0.462290644 22.0743782,0.558601194 22.2284751,0.674173855 C22.4018341,0.789746516 22.5366689,0.924581287 22.6522415,1.07867817 C22.7678142,1.21351294 22.8448626,1.38687193 22.9219111,1.54096881 C22.9796974,1.7143278 23.0374837,1.88768679 23.0567459,2.0803079 C23.076008,2.272929 23.0952701,2.48481221 23.076008,2.67743331 C23.076008,2.87005441 23.0374837,3.08193762 22.9989595,3.27455873 C22.9796974,3.31308295 22.9796974,3.35160717 22.9796974,3.39013139 C22.9796974,3.42865561 22.9604353,3.46717983 22.9411732,3.50570405 L22.9411732,3.73684937 L22.9411732,3.73684937 C22.8256005,4.14135368 22.6907658,4.52659589 22.4981447,4.89257598 C22.3055236,5.25855607 22.0743782,5.58601194 21.7854466,5.8749436 C21.515777,6.16387525 21.1883212,6.41428268 20.8416032,6.62616589 C20.4948852,6.81878699 20.0903809,6.97288388 19.6473524,7.06919443 L21.2846317,12.0002946 L18.4723636,12.0002946 L17.1047538,7.33886397 L14.157651,7.33886397 L12.9248759,12.0002946 L10.4015395,12.0002946 L13.5797877,0.134834771 L19.7244008,0.134834771 Z M40.5852661,0.154096881 L40.0266649,2.21514267 L36.020146,2.21514267 C35.500069,2.23440478 35.0185163,2.29219111 34.6140119,2.38850166 C34.2095076,2.50407432 33.8435275,2.6581712 33.5353338,2.88931652 C33.22714,3.10119973 32.9574705,3.39013139 32.7263251,3.75611148 C32.4951798,4.12209157 32.3025587,4.58438222 32.1291997,5.10445919 L39.2754426,5.08519708 L38.7168414,7.12698076 L31.5898607,7.12698076 L30.2992993,11.9810325 L27.8144871,11.9810325 L29.2591453,6.52985534 C29.548077,5.41265295 29.9140571,4.43028534 30.2992993,3.62127671 C30.6845415,2.81226808 31.1468321,2.15735634 31.647647,1.65654147 C32.1484618,1.15572661 32.8226357,0.789746516 33.6701685,0.539339084 C34.5369635,0.288931652 35.5771175,0.173358991 36.7906304,0.173358991 L40.5852661,0.154096881 Z M18.6071984,2.272929 L15.5059987,2.272929 L14.69699,5.25855607 L17.7596656,5.25855607 C17.772507,5.27139748 17.7767874,5.27567795 17.7839216,5.27710477 L17.9137624,5.27781818 L17.9137624,5.27781818 C18.183432,5.27781818 18.4338394,5.25855607 18.6842468,5.22003185 C18.9346543,5.18150763 19.1850617,5.1237213 19.416207,5.04667286 C19.6473524,4.95036231 19.8399735,4.81552754 20.0133324,4.60364433 C20.1866914,4.39176111 20.3022641,4.12209157 20.3985747,3.77537359 C20.4948852,3.42865561 20.4948852,3.13972395 20.456361,2.92784074 C20.3985747,2.71595753 20.2637399,2.58112276 20.0518567,2.50407432 C19.8399735,2.44628799 19.6088281,2.38850166 19.3776828,2.34997744 C19.1272754,2.31145322 18.8768679,2.29219111 18.5879363,2.29219111 L18.6071984,2.272929 Z"></path><path d="M85.2540995,3.29382084 L85.2540995,3.31308295 C85.8897492,3.33234506 86.4483504,3.42865561 86.8913789,3.6020146 C87.3536695,3.7946357 87.7003875,4.06430524 87.9700571,4.43028534 C88.2397266,4.79626543 88.3938235,5.23929396 88.4708719,5.74010883 C88.5286583,6.24092369 88.490134,6.81878699 88.3552993,7.45443663 C88.2975129,7.74336828 88.2204645,8.03229993 88.1241539,8.32123159 C88.0278434,8.61016324 87.8930086,8.87983278 87.7581739,9.16876443 C87.604077,9.43843397 87.430718,9.70810352 87.2380969,9.97777306 C87.0454758,10.2281805 86.8335926,10.4785879 86.5831851,10.6904711 C86.2942535,10.9794028 85.9860597,11.2105481 85.677866,11.3839071 C85.3696722,11.5572661 85.0614784,11.6921009 84.7340226,11.7691493 C84.4258288,11.8461977 84.0983729,11.9039841 83.7709171,11.9425083 C83.4434612,11.9810325 83.1160053,12.0002946 82.7885494,12.0002946 L80.8045521,12.0002946 L79.9570192,15.1400186 L77.6648281,15.1400186 L80.8430763,3.29382084 L85.2540995,3.29382084 Z M113.453829,3.29382084 L112.066957,8.47532847 C111.970646,8.80278434 111.932122,9.05319177 111.91286,9.28433709 C111.893598,9.49622031 111.932122,9.6695793 112.009171,9.76588985 C112.066957,9.88146251 112.201792,9.95851095 112.394413,10.0162973 C112.587034,10.0740836 112.837441,10.0933457 113.145635,10.0933457 L113.164897,10.0740836 L115.052584,10.0740836 L115.052584,10.0933457 L116.863222,3.31308295 L119.155413,3.31308295 L116.882484,11.7884114 C116.74765,12.3277505 116.555029,12.8093033 116.304621,13.2330697 C116.054214,13.6568361 115.784544,14.0035541 115.437826,14.2732236 C115.091108,14.5621553 114.705866,14.7740385 114.243575,14.9088733 C113.800547,15.043708 113.28047,15.1207565 112.702607,15.1207565 L108.195273,15.1400186 L108.657563,13.3679044 L112.760393,13.3679044 C113.0108,13.3486423 113.222683,13.3101181 113.396042,13.2523318 C113.588664,13.1945455 113.74276,13.117497 113.896857,13.0019244 C114.050954,12.8863517 114.166527,12.7515169 114.262837,12.5781579 C114.359148,12.4047989 114.436196,12.2121778 114.493983,12.0002946 L112.471461,12.0002946 C111.874336,12.0002946 111.373521,11.9425083 110.949754,11.8269356 C110.525988,11.711363 110.198532,11.538004 109.967387,11.2875965 C109.716979,11.0564512 109.582145,10.7289954 109.54362,10.2859668 C109.505096,9.84293829 109.562883,9.32286131 109.736242,8.66794957 L111.1809,3.29382084 L113.453829,3.29382084 Z M60.328929,3.15898607 C60.6371228,3.15898607 60.9260544,3.17824818 61.2149861,3.23603451 C61.5039177,3.29382084 61.7735873,3.37086928 62.0432568,3.46717983 C62.3129263,3.56349038 62.5633338,3.69832515 62.775217,3.85242203 C62.9871002,4.00651891 63.1604592,4.1798779 63.3145561,4.372499 C63.468653,4.58438222 63.5842256,4.81552754 63.6805362,5.06593497 C63.7768467,5.3163424 63.834633,5.58601194 63.8731573,5.8749436 C63.8924194,6.16387525 63.8924194,6.47206901 63.8731573,6.76100066 C63.8538952,7.04993232 63.7961088,7.35812608 63.7190604,7.66631984 C63.6420119,7.9745136 63.5264393,8.28270737 63.3916045,8.59090113 C63.2567697,8.89909489 63.0834107,9.18802654 62.8907896,9.4769582 C62.7174307,9.76588985 62.5055474,10.0548215 62.2936642,10.2859668 C62.081781,10.5171121 61.8121115,10.7675196 61.5424419,10.9794028 L61.5424419,10.9601407 C61.2920345,11.1720239 61.0031029,11.364645 60.7141712,11.5187419 C60.4252395,11.6728388 60.1170458,11.8076735 59.7895899,11.9039841 C59.5777067,11.9617704 59.3658235,12.0195567 59.1539403,12.058081 C58.9420571,12.0966052 58.7301739,12.1351294 58.5182906,12.1543915 C58.402718,12.1736536 58.3064074,12.1736536 58.2100969,12.1736536 L57.9019031,12.1736536 L57.9019031,12.1736536 C57.5937094,12.1736536 57.2855156,12.1543915 56.9965839,12.0966052 C56.7076523,12.0388188 56.4187206,11.9810325 56.1490511,11.884722 C55.8793816,11.7884114 55.6482362,11.6535766 55.436353,11.5187419 C55.2244698,11.364645 55.0511108,11.191286 54.8970139,10.9794028 C54.7429171,10.7675196 54.6080823,10.5363743 54.5117717,10.2859668 C54.4154612,10.0355594 54.3384127,9.76588985 54.3191506,9.4769582 C54.2998885,9.18802654 54.2998885,8.89909489 54.3384127,8.59090113 C54.376937,8.28270737 54.4347233,7.9745136 54.5117717,7.66631984 C54.6080823,7.35812608 54.7043928,7.04993232 54.8392276,6.76100066 C54.9740624,6.47206901 55.1281593,6.16387525 55.3015182,5.8749436 C55.4941393,5.58601194 55.6867605,5.3163424 55.9179058,5.06593497 C56.1490511,4.81552754 56.3994585,4.58438222 56.6691281,4.372499 C56.9387976,4.1798779 57.2084672,4.00651891 57.4973988,3.85242203 C57.7863305,3.69832515 58.0945242,3.56349038 58.4219801,3.46717983 C58.749436,3.37086928 59.0576297,3.29382084 59.3850856,3.23603451 C59.7125415,3.17824818 60.0207352,3.15898607 60.328929,3.15898607 Z M75.1414917,3.31308295 C75.7000929,3.33234506 76.1623835,3.39013139 76.58615,3.50570405 C76.9906543,3.62127671 77.3373723,3.7946357 77.5877797,4.00651891 C77.8381871,4.21840212 77.992284,4.545858 78.0500703,4.96962442 C78.1078567,5.39339084 78.0500703,5.91346782 77.8959735,6.52985534 L76.4320531,12.0195567 L74.1205999,12.0195567 L75.5074718,6.79952488 C75.6230445,6.39502057 75.6615687,6.0675647 75.6230445,5.83641938 C75.6037823,5.60527405 75.5074718,5.45117717 75.3533749,5.39339084 C75.199278,5.33560451 75.0066569,5.27781818 74.7562495,5.25855607 C74.5058421,5.23929396 74.2169104,5.22003185 73.8509303,5.23929396 C73.793144,5.25855607 73.7160956,5.25855607 73.6583092,5.25855607 L73.1382322,5.25855607 L73.1382322,5.25855607 L71.346856,12.0388188 L68.9968786,12.0388188 L70.8075169,5.25855607 L68.1108215,5.25855607 L66.3001831,12.0388188 L63.9887299,12.0388188 L66.3194453,3.33234506 L75.1414917,3.33234506 L75.1414917,3.31308295 Z M54.7236549,3.35160717 L54.203578,5.23929396 L51.75729,5.23929396 C51.7380279,5.23929396 51.7380279,5.23929396 51.6995036,5.25855607 L50.8327087,5.25855607 L50.8327087,5.25855607 C50.717136,5.25855607 50.6208255,5.27781818 50.5052528,5.29708029 C50.4667286,5.29708029 50.4282044,5.29708029 50.3896802,5.3163424 C50.3511559,5.33560451 50.3126317,5.33560451 50.2741075,5.35486662 C50.1970591,5.37412873 50.1200106,5.39339084 50.0429622,5.43191506 C49.9659137,5.45117717 49.9081274,5.48970139 49.831079,5.52822561 C49.5806715,5.64379827 49.3687883,5.79789516 49.1954293,5.95199204 C49.0220703,6.12535103 48.8679735,6.29871002 48.7331387,6.49133112 C48.617566,6.70321433 48.5019934,6.91509754 48.4056828,7.12698076 C48.3093723,7.33886397 48.2323238,7.55074718 48.1745375,7.76263039 C48.1167512,7.9745136 48.0782269,8.18639681 48.0782269,8.39828003 C48.0589648,8.61016324 48.0589648,8.80278434 48.0782269,9.01466755 C48.0974891,9.20728865 48.1552754,9.38064764 48.2515859,9.53474453 C48.3478965,9.68884141 48.4634691,9.82367618 48.6368281,9.93924884 C48.7138766,9.99703517 48.790925,10.0355594 48.8872356,10.0740836 C48.9835461,10.1126078 49.0798567,10.1318699 49.1761672,10.1511321 C49.2724778,10.1703942 49.3687883,10.1703942 49.4650989,10.1896563 C49.5421473,10.2024977 49.6106348,10.2067781 49.681976,10.208205 L50.370418,10.2089184 L50.370418,10.2089184 L50.370418,10.1896563 L52.9029874,10.1889861 L52.4122017,12.0195567 L49.2917399,12.0195567 C49.0028082,12.0195567 48.6946145,12.0002946 48.4056828,11.9810325 C48.1167512,11.9617704 47.8278195,11.9039841 47.5774121,11.8461977 C47.3270046,11.7884114 47.0958593,11.6728388 46.864714,11.538004 C46.6528308,11.4031692 46.4602097,11.2105481 46.2868507,11.017927 C46.1520159,10.8253059 46.0364433,10.6326848 45.9401327,10.4208016 C45.8438222,10.2089184 45.7860358,9.97777306 45.7667737,9.74662774 C45.7282495,9.49622031 45.7089874,9.24581287 45.7089874,8.99540544 C45.7089874,8.74499801 45.7282495,8.49459058 45.7667737,8.22492104 C45.7860358,8.18639681 45.7860358,8.14787259 45.7860358,8.10934837 C45.7860358,8.07082415 45.8052979,8.03229993 45.8052979,7.99377571 L45.8052979,7.93598938 L45.8052979,7.93598938 C45.8052979,7.91672727 45.8245601,7.89746516 45.8245601,7.87820305 C45.8374015,7.86536165 45.8416819,7.86108118 45.8431088,7.84823977 L45.8438222,7.76263039 L45.8438222,7.76263039 C45.8630843,7.74336828 45.8630843,7.72410617 45.8630843,7.68558195 C45.8630843,7.66631984 45.8823464,7.62779562 45.8823464,7.60853351 L45.8823464,7.53148507 L45.8823464,7.53148507 C45.8823464,7.51222296 45.9016085,7.47369874 45.9016085,7.45443663 C45.9208706,7.3966503 45.9401327,7.33886397 45.9593948,7.30033975 C45.9786569,7.24255342 45.997919,7.2040292 46.0171812,7.16550498 C46.1134917,6.91509754 46.2098023,6.66469011 46.344637,6.41428268 C46.4794718,6.16387525 46.6143066,5.91346782 46.8069277,5.6823225 C46.9802867,5.43191506 47.1536457,5.22003185 47.3655289,4.98888653 C47.5774121,4.77700332 47.7892953,4.58438222 48.0397027,4.41102322 C48.3286344,4.19914001 48.617566,4.00651891 48.9064977,3.87168414 C49.1954293,3.73684937 49.484361,3.64053882 49.7732926,3.56349038 L50.2355833,3.46717983 L50.2355833,3.46717983 L50.6978739,3.4093935 L50.6978739,3.4093935 C50.8327087,3.39013139 50.9868056,3.37086928 51.1409025,3.37086928 L51.583931,3.37086928 L51.583931,3.37086928 L54.7236549,3.35160717 Z M95.7904738,3.31308295 C96.0408812,3.33234506 96.2720265,3.35160717 96.5031719,3.37086928 L96.7343172,3.40083256 L96.7343172,3.40083256 L97.1966078,3.48644194 L97.1966078,3.48644194 C97.408491,3.52496616 97.6203743,3.62127671 97.7937332,3.73684937 C97.9670922,3.85242203 98.1211891,4.00651891 98.275286,4.19914001 C98.3908587,4.35323689 98.4871692,4.52659589 98.5449555,4.69995488 C98.6027419,4.87331387 98.6412661,5.08519708 98.6605282,5.27781818 C98.6797903,5.48970139 98.6605282,5.70158461 98.6412661,5.91346782 C98.622004,6.12535103 98.5642177,6.33723424 98.5256934,6.56837956 L97.0810352,12.0002946 L90.8978978,12.0002946 C90.4548693,12.0002946 90.0696271,11.9425083 89.7614333,11.8269356 C89.4339774,11.711363 89.2028321,11.5187419 89.0294731,11.2875965 C88.8561141,11.0371891 88.7598036,10.7482575 88.7405415,10.4015395 C88.7212794,10.0740836 88.7983278,9.6695793 88.9331626,9.24581287 C89.1065216,8.7257359 89.3184048,8.30196948 89.5880743,7.95525149 C89.8577439,7.60853351 90.1851997,7.35812608 90.5704419,7.2040292 C90.936422,7.04993232 91.3409263,6.93435965 91.7454307,6.85731121 C92.149935,6.78026277 92.5929635,6.74173855 93.0552541,6.74173855 L96.0794054,6.72247644 C96.1949781,6.37575846 96.2335023,6.08682681 96.1949781,5.85568149 C96.1564539,5.62453616 96.0408812,5.47043928 95.8675222,5.39339084 C95.6941632,5.29708029 95.48228,5.23929396 95.2318726,5.20076974 C94.9814652,5.16224552 94.7117956,5.14298341 94.4036019,5.14298341 L90.589704,5.1237213 L91.0712568,3.33234506 L95.7904738,3.33234506 L95.7904738,3.31308295 Z M105.710461,3.29382084 L105.710461,3.31308295 C106.269062,3.33234506 106.769877,3.39013139 107.174381,3.48644194 C107.598147,3.6020146 107.925603,3.75611148 108.195273,3.9872568 C108.44568,4.19914001 108.599777,4.52659589 108.657563,4.95036231 C108.71535,5.37412873 108.657563,5.89420571 108.484204,6.51059323 L107.020284,12.0002946 L104.728093,12.0002946 L106.114965,6.76100066 C106.211275,6.47206901 106.2498,6.22166158 106.2498,6.00977837 C106.2498,5.79789516 106.211275,5.64379827 106.134227,5.54748772 C106.057179,5.45117717 105.922344,5.37412873 105.729723,5.3163424 C105.537102,5.25855607 105.286694,5.23929396 104.9785,5.23929396 L103.1486,5.22003185 L101.337962,12.0002946 L99.0457704,12.0002946 L101.376486,3.29382084 L105.710461,3.29382084 Z M59.6740173,5.10445919 C59.5391825,5.1237213 59.4236098,5.14298341 59.3080372,5.16224552 C59.1732024,5.18150763 59.0383676,5.22003185 58.922795,5.27781818 C58.7879602,5.33560451 58.6723875,5.39339084 58.5568149,5.45117717 C58.2871453,5.58601194 58.056,5.75937094 57.8633789,5.95199204 C57.6707578,6.14461314 57.4973988,6.35649635 57.3433019,6.60690378 C57.2855156,6.70321433 57.2277293,6.79952488 57.189205,6.89583543 C57.1314187,6.99214599 57.0928945,7.08845654 57.0543703,7.18476709 C57.0158461,7.28107764 56.9773218,7.37738819 56.9580597,7.47369874 C56.9387976,7.57000929 56.9195355,7.66631984 56.9002734,7.76263039 C56.823225,8.03229993 56.7847007,8.28270737 56.7847007,8.51385269 C56.7847007,8.76426012 56.8039628,8.99540544 56.8617492,9.22655076 C56.9195355,9.45769608 57.0158461,9.65031719 57.1506808,9.80441407 C57.2855156,9.95851095 57.4588746,10.0933457 57.6900199,10.1703942 L57.709282,10.1511321 C57.709282,10.1639735 57.717843,10.1768149 57.7349648,10.1896563 L57.7670683,10.2089184 C57.8055926,10.2281805 57.8248547,10.2474426 57.8633789,10.2474426 L57.9596894,10.2859668 L57.9596894,10.2859668 C57.9982137,10.3052289 58.0174758,10.3052289 58.056,10.3052289 C58.3064074,10.3437532 58.576077,10.3437532 58.8264844,10.3052289 C59.0961539,10.2474426 59.3465614,10.1511321 59.6162309,10.0162973 C59.8859005,9.88146251 60.1170458,9.70810352 60.328929,9.51548242 C60.5408122,9.3035992 60.7141712,9.07245388 60.8682681,8.82204645 C60.9260544,8.7257359 60.9645786,8.64868746 61.0031029,8.5331148 C61.0416271,8.43680425 61.0801513,8.32123159 61.1186755,8.22492104 C61.1764618,8.10934837 61.2149861,8.01303782 61.2535103,7.89746516 C61.2920345,7.7818925 61.3112966,7.68558195 61.3498208,7.57000929 C61.4076072,7.31960186 61.4268693,7.08845654 61.4268693,6.85731121 C61.4268693,6.62616589 61.4076072,6.41428268 61.3690829,6.20239947 C61.3305587,5.99051626 61.2342482,5.79789516 61.1186755,5.62453616 C61.0031029,5.47043928 60.8297439,5.33560451 60.6178607,5.23929396 L60.4830259,5.18150763 L60.4830259,5.18150763 C60.4252395,5.16224552 60.3867153,5.14298341 60.3481911,5.14298341 C60.2904048,5.1237213 60.2326184,5.1237213 60.1940942,5.1237213 C60.1363079,5.1237213 60.0977837,5.10445919 60.0399973,5.10445919 C59.9244247,5.08519708 59.7895899,5.08519708 59.6740173,5.10445919 Z M95.6171148,8.47532847 L92.9011573,8.47532847 C92.8818952,8.49459058 92.8818952,8.49459058 92.862633,8.49459058 L92.7470604,8.49459058 L92.7470604,8.49459058 C92.5929635,8.51385269 92.4388666,8.5331148 92.2847697,8.55237691 C92.1306729,8.57163902 91.976576,8.62942535 91.8224791,8.66794957 C91.6876443,8.70647379 91.5528096,8.80278434 91.456499,8.918357 C91.3601885,9.05319177 91.2638779,9.20728865 91.2253537,9.38064764 C91.1483052,9.59253086 91.1290431,9.76588985 91.1483052,9.90072462 C91.1675674,10.0355594 91.2446158,10.1126078 91.3794506,10.1511321 C91.4950232,10.1896563 91.629858,10.2281805 91.7839549,10.2474426 C91.9187896,10.2667047 92.0728865,10.2859668 92.2462455,10.2859668 L92.2462455,10.2667047 L95.135562,10.2667047 L95.6171148,8.47532847 Z M83.3278885,5.18150763 C83.2893643,5.19434904 83.2422791,5.19862951 83.1980476,5.20005633 L82.6151904,5.20076974 L82.6151904,5.20076974 L82.6151904,5.18150763 L81.2861048,10.1511321 L81.7483955,10.1511321 L81.7483955,10.1511321 C82.2684725,10.1703942 82.7500252,10.1318699 83.1930537,10.0933457 C83.6360823,10.0355594 84.0405866,9.95851095 84.4065667,9.84293829 C84.7532847,9.72736563 85.0614784,9.45769608 85.331148,9.07245388 C85.6008175,8.68721168 85.8127007,8.12861048 85.9860597,7.43517452 C86.1208945,6.85731121 86.1401566,6.39502057 86.0631082,6.0675647 C85.9860597,5.74010883 85.8127007,5.52822561 85.5237691,5.43191506 C85.2348374,5.33560451 84.9073816,5.27781818 84.5414015,5.23929396 C84.1754214,5.20076974 83.7709171,5.18150763 83.3278885,5.18150763 Z" fill-opacity="0.6"></path></g><g transform="translate(15.602309, 0.000000)" fill="#EE7D11" fill-rule="nonzero" id="Path"><path d="M5.70158461,3.17824818 C6.66469011,2.8507923 7.06919443,2.67743331 7.60853351,3.23603451 C8.14787259,3.7946357 8.41754214,4.545858 8.41754214,4.545858 C8.41754214,4.545858 7.95525149,5.00814864 7.22329131,5.27781818 C6.74173855,5.45117717 6.12535103,5.54748772 6.12535103,5.54748772 C6.12535103,5.54748772 6.27944791,5.02741075 6.41428268,4.60364433 C6.56837956,4.1798779 7.03067021,3.19751029 7.03067021,3.19751029 L6.56837956,3.13972395 C6.56837956,3.13972395 6.02904048,3.87168414 5.58601194,4.89257598 C5.25855607,5.66306038 5.06593497,6.54911745 5.06593497,6.54911745 C5.06593497,6.54911745 6.78026277,6.35649635 7.76263039,6.02904048 C8.74499801,5.70158461 9.49622031,5.41265295 9.6695793,5.20076974 C9.8622004,4.98888653 10.2089184,4.48807167 10.4400637,3.19751029 C10.6326848,2.09957001 10.2859668,1.3290856 10.2859668,1.3290856 C10.2859668,1.3290856 10.1703942,1.27129927 9.65031719,1.50244459 C9.55400664,1.54096881 9.45769608,1.59875514 9.38064764,1.63727936 C9.20728865,1.73358991 8.99540544,1.94547313 8.87983278,2.09957001 C9.03392966,2.44628799 9.20728865,2.98562707 9.07245388,3.46717983 C8.49459058,2.60038487 7.99377571,2.13809423 7.53148507,1.98399735 C6.85731121,1.75285202 6.49133112,1.86842468 5.1237213,2.48481221 C3.92947047,3.02415129 1.73358991,4.31471267 0.616387525,4.98888653 C0.327455873,5.16224552 0.134834771,5.27781818 0.134834771,5.27781818 C0.134834771,5.27781818 4.66143066,3.54422827 5.70158461,3.17824818"></path><path d="M7.91672727,1.84916257 C7.91672727,1.84916257 8.32123159,1.44465826 9.07245388,1.02089184 C9.93924884,0.539339084 11.2490723,0.0770484406 11.2490723,0.0770484406 C11.2490723,0.0770484406 10.2089184,0.269669542 8.80278434,0.924581287 C8.28270737,1.17498872 7.60853351,1.73358991 7.60853351,1.73358991 L7.91672727,1.84916257 Z"></path></g></g><g id="Group"><path d="M280.78378,1.59875514 C281.804672,1.59875514 282.748515,1.7143278 283.634572,1.94547313 C284.520629,2.17661845 285.329638,2.42702588 286.023074,2.73521964 C286.71651,3.02415129 287.294373,3.33234506 287.775926,3.62127671 C288.257478,3.91020836 288.584934,4.14135368 288.777555,4.29545056 C288.989439,4.43028534 289.124273,4.62290644 289.162798,4.89257598 C289.201322,5.16224552 289.162798,5.39339084 289.027963,5.60527405 L287.506256,7.89746516 C287.352159,8.12861048 287.140276,8.32123159 286.870607,8.43680425 C286.600937,8.55237691 286.35053,8.5331148 286.119384,8.37901792 C286.042336,8.32123159 285.81119,8.18639681 285.425948,7.93598938 C285.040706,7.70484406 284.578415,7.45443663 284.039076,7.18476709 C283.499737,6.93435965 282.941136,6.70321433 282.324749,6.49133112 C281.708361,6.27944791 281.130498,6.16387525 280.571896,6.16387525 C279.41617,6.16387525 278.549375,6.47206901 277.95225,7.08845654 C277.355124,7.70484406 277.04693,8.3404937 277.04693,8.97614333 C277.04693,9.91998673 277.432173,10.7289954 278.183395,11.4224313 C278.934617,12.1158673 280.128868,12.7900411 281.766147,13.464215 C282.729253,13.8687193 283.71162,14.3117478 284.71325,14.8318248 C285.71488,15.3326397 286.620199,15.9490272 287.409946,16.6617253 C288.218954,17.3744234 288.854604,18.2026941 289.374681,19.1657996 C289.875496,20.1289051 290.125903,21.2461075 290.125903,22.5366689 C290.125903,23.5768228 289.91402,24.5784526 289.490253,25.522296 C289.066487,26.4661393 288.4501,27.3136722 287.641091,28.0456324 C286.832082,28.7775926 285.868977,29.374718 284.732512,29.8177465 C283.596048,30.260775 282.324749,30.4726583 280.918614,30.4726583 C279.666577,30.4726583 278.530113,30.3378235 277.547745,30.0874161 C276.546115,29.8370086 275.679321,29.5288149 274.94736,29.1820969 C274.2154,28.8353789 273.618275,28.4886609 273.155984,28.1419429 C272.655169,27.7567007 272.327713,27.4870312 272.096568,27.2944101 C271.903947,27.101789 271.788374,26.9476921 271.711326,26.7935952 C271.653539,26.6394983 271.711326,26.408353 271.884685,26.1001593 L273.329343,23.615347 C273.48344,23.3264154 273.714585,23.1723185 273.984255,23.1530564 C274.273186,23.1337943 274.504332,23.1915806 274.677691,23.3264154 C274.735477,23.3456775 274.94736,23.4997744 275.332603,23.7694439 C275.717845,24.0391135 276.199397,24.308783 276.796523,24.6169768 C277.374386,24.9059084 278.029298,25.1948401 278.722734,25.4452475 C279.41617,25.6956549 280.090344,25.8304897 280.725993,25.8304897 C281.766147,25.8304897 282.632942,25.522296 283.326378,24.9251705 C284.019814,24.3280451 284.366532,23.5960849 284.366532,22.7485521 C284.366532,21.7276603 283.942766,20.8608653 283.095233,20.109643 C282.2477,19.3584207 280.976401,18.6457226 279.300597,17.9522867 C278.376016,17.5863066 277.451435,17.143278 276.546115,16.6232011 C275.640796,16.1223862 274.831788,15.5059987 274.11909,14.8125627 C273.406392,14.1191267 272.84779,13.3101181 272.424024,12.4047989 C272.000257,11.4994798 271.788374,10.4593258 271.788374,9.28433709 C271.788374,8.39828003 271.961733,7.49296085 272.308451,6.58764167 C272.655169,5.6823225 273.194508,4.83478965 273.907206,4.10282946 C274.619904,3.37086928 275.544486,2.77374386 276.68095,2.29219111 C277.817415,1.82990046 279.185025,1.59875514 280.78378,1.59875514 Z M105.055549,1.59875514 C106.076441,1.59875514 107.020284,1.7143278 107.906341,1.94547313 C108.792398,2.17661845 109.601407,2.42702588 110.294843,2.73521964 C110.988279,3.02415129 111.566142,3.33234506 112.047695,3.62127671 C112.529248,3.91020836 112.856703,4.14135368 113.049324,4.29545056 C113.261208,4.43028534 113.396042,4.62290644 113.434567,4.89257598 C113.473091,5.16224552 113.434567,5.39339084 113.299732,5.60527405 L111.778025,7.89746516 C111.623928,8.12861048 111.412045,8.32123159 111.142376,8.43680425 C110.872706,8.55237691 110.622299,8.5331148 110.391153,8.37901792 C110.314105,8.32123159 110.08296,8.18639681 109.697717,7.93598938 C109.312475,7.70484406 108.850184,7.45443663 108.310845,7.18476709 C107.771506,6.93435965 107.212905,6.70321433 106.596518,6.49133112 C105.98013,6.27944791 105.402267,6.16387525 104.843666,6.16387525 C103.687939,6.16387525 102.821144,6.47206901 102.224019,7.08845654 C101.626893,7.70484406 101.318699,8.3404937 101.318699,8.97614333 C101.318699,9.91998673 101.703942,10.7289954 102.455164,11.4224313 C103.206386,12.1158673 104.400637,12.7900411 106.037916,13.464215 C107.001022,13.8687193 107.98339,14.3117478 108.985019,14.8318248 C109.986649,15.3326397 110.891968,15.9490272 111.681715,16.6617253 C112.490723,17.3744234 113.126373,18.2026941 113.64645,19.1657996 C114.147265,20.1289051 114.397672,21.2461075 114.397672,22.5366689 C114.397672,23.5768228 114.185789,24.5784526 113.762023,25.522296 C113.338256,26.4661393 112.721869,27.3136722 111.91286,28.0456324 C111.103851,28.7775926 110.140746,29.374718 109.004281,29.8177465 C107.867817,30.260775 106.577255,30.434134 105.171121,30.434134 C103.919084,30.434134 102.78262,30.2992993 101.800252,30.0488918 C100.798622,29.7984844 99.9318275,29.4902906 99.1998673,29.1435727 C98.4679071,28.7968547 97.8707817,28.4501367 97.408491,28.1034187 C96.9076762,27.7567007 96.5802203,27.4870312 96.3683371,27.2944101 C96.175716,27.101789 96.0601433,26.9476921 95.9830949,26.7935952 C95.9253086,26.6394983 95.9830949,26.408353 96.1564539,26.1001593 L97.6011121,23.615347 C97.755209,23.3264154 97.9863543,23.1723185 98.2560239,23.1530564 C98.5449555,23.1337943 98.7761009,23.1915806 98.9494599,23.3264154 C99.0072462,23.3456775 99.2191294,23.4997744 99.6043716,23.7694439 C99.9896138,24.0391135 100.471167,24.308783 101.068292,24.6169768 C101.646155,24.9059084 102.301067,25.1948401 102.994503,25.4452475 C103.687939,25.6956549 104.362113,25.8304897 104.997762,25.8304897 C106.037916,25.8304897 106.904711,25.522296 107.598147,24.9251705 C108.291583,24.3280451 108.638301,23.5960849 108.638301,22.7485521 C108.638301,21.7276603 108.214535,20.8608653 107.367002,20.109643 C106.519469,19.3584207 105.24817,18.6457226 103.572366,17.9522867 C102.647785,17.5863066 101.723204,17.143278 100.817885,16.6232011 C99.9125654,16.1223862 99.1035567,15.5059987 98.3908587,14.8125627 C97.6781606,14.1191267 97.1195594,13.3101181 96.695793,12.4047989 C96.2720265,11.4994798 96.0601433,10.4593258 96.0601433,9.28433709 C96.0601433,8.39828003 96.2335023,7.49296085 96.5802203,6.58764167 C96.9269383,5.66306038 97.4662774,4.83478965 98.1789754,4.10282946 C98.8916735,3.37086928 99.8162548,2.77374386 100.952719,2.29219111 C102.089184,1.82990046 103.456794,1.59875514 105.055549,1.59875514 Z M208.050052,1.57949303 L224.692515,19.3006344 L224.731039,19.3006344 L224.731039,2.75448175 C224.731039,2.54259854 224.808088,2.36923955 224.942922,2.21514267 C225.097019,2.06104579 225.270378,2.00325946 225.482261,2.00325946 L229.161324,2.00325946 C229.373208,2.00325946 229.546567,2.0803079 229.700664,2.21514267 C229.85476,2.36923955 229.912547,2.54259854 229.912547,2.75448175 L229.912547,29.721436 C229.912547,29.9333192 229.835498,30.1066782 229.700664,30.2415129 C229.546567,30.3763477 229.373208,30.434134 229.161324,30.434134 L228.198219,30.434134 L211.478707,12.0388188 L211.440183,12.0388188 L211.440183,29.2784074 C211.440183,29.4902906 211.363135,29.6636496 211.2283,29.8177465 C211.074203,29.9718434 210.900844,30.0296297 210.688961,30.0296297 L207.048422,30.0296297 C206.836539,30.0296297 206.66318,29.9525813 206.509083,29.8177465 C206.354986,29.6636496 206.2972,29.4902906 206.2972,29.2784074 L206.2972,2.29219111 C206.2972,2.0803079 206.374248,1.90694891 206.509083,1.77211413 C206.66318,1.63727936 206.836539,1.57949303 207.048422,1.57949303 L208.050052,1.57949303 Z M158.527167,1.98399735 C159.721417,1.98399735 160.857882,2.21514267 161.917298,2.6581712 C162.976714,3.12046184 163.901295,3.73684937 164.691042,4.50733378 C165.50005,5.27781818 166.116438,6.18313736 166.578729,7.24255342 C167.041019,8.28270737 167.252902,9.39990975 167.252902,10.6134227 C167.252902,11.5187419 167.098806,12.3855368 166.809874,13.2138076 C166.520942,14.0420783 166.116438,14.8125627 165.596361,15.5059987 C165.076284,16.1994346 164.459896,16.8158222 163.727936,17.3744234 C163.015238,17.9137624 162.20623,18.3760531 161.320173,18.7227711 L166.809874,28.9124273 C166.944709,29.1820969 166.944709,29.4325043 166.829136,29.7021739 C166.713563,29.9525813 166.482418,30.0874161 166.1357,30.0874161 L161.93656,30.0874161 C161.743939,30.0874161 161.609104,30.0488918 161.512794,29.9718434 C161.416483,29.894795 161.339435,29.8177465 161.30091,29.7406981 L155.984568,19.1272754 L151.535021,19.1272754 L151.535021,29.3554559 C151.535021,29.5673391 151.457972,29.7406981 151.323137,29.894795 C151.16904,30.0488918 150.995681,30.1066782 150.783798,30.1066782 L147.104735,30.1066782 C146.892852,30.1066782 146.719493,30.0296297 146.565396,29.894795 C146.411299,29.7406981 146.353513,29.5673391 146.353513,29.3554559 L146.353513,2.73521964 L146.334251,2.73521964 C146.334251,2.52333643 146.411299,2.34997744 146.546134,2.19588056 C146.700231,2.04178368 146.87359,1.98399735 147.085473,1.98399735 L158.527167,1.98399735 Z M186.264605,1.57949303 C186.476488,1.57949303 186.630585,1.61801725 186.726896,1.69506569 C186.823206,1.77211413 186.900255,1.88768679 186.938779,2.02252157 L199.26653,28.9894758 C199.401364,29.2591453 199.401364,29.4902906 199.247267,29.7021739 C199.093171,29.9140571 198.881287,30.0296297 198.592356,30.0296297 L195.105914,30.0296297 C194.816982,30.0296297 194.585837,29.9718434 194.412478,29.8562707 C194.239119,29.7406981 194.085022,29.5288149 193.950187,29.2398832 L191.985452,24.9059084 L180.023681,24.9059084 L178.058946,29.2398832 C177.981898,29.4517664 177.847063,29.6443875 177.654442,29.7984844 C177.461821,29.9525813 177.211413,30.0296297 176.90322,30.0296297 L173.416778,30.0296297 C173.127846,30.0296297 172.896701,29.9140571 172.761866,29.7021739 C172.607769,29.4902906 172.607769,29.2398832 172.742604,28.9894758 L185.185927,2.02252157 C185.340024,1.73358991 185.571169,1.57949303 185.860101,1.57949303 L186.264605,1.57949303 Z M250.811936,1.98399735 C252.738147,1.98399735 254.548786,2.34997744 256.243851,3.08193762 C257.958179,3.81389781 259.441362,4.81552754 260.731923,6.08682681 C262.003222,7.35812608 263.024114,8.84130856 263.756074,10.5363743 C264.488035,12.2314399 264.854015,14.0420783 264.854015,15.9682893 C264.854015,17.9137624 264.488035,19.7436629 263.756074,21.4579907 C263.024114,23.1723185 262.022484,24.655501 260.731923,25.9268003 C259.460624,27.1980995 257.958179,28.1997293 256.243851,28.9316894 C254.529524,29.6636496 252.718885,30.0296297 250.811936,30.0296297 L241.334978,30.0296297 C241.123095,30.0296297 240.949736,29.9525813 240.814901,29.8177465 C240.680066,29.6636496 240.62228,29.4902906 240.62228,29.2784074 L240.62228,2.73521964 C240.62228,2.52333643 240.680066,2.34997744 240.814901,2.19588056 C240.949736,2.04178368 241.123095,1.98399735 241.334978,1.98399735 L250.811936,1.98399735 Z M138.013019,1.98399735 C138.224902,1.98399735 138.398261,2.06104579 138.552358,2.19588056 C138.706455,2.34997744 138.764242,2.52333643 138.764242,2.73521964 L138.764242,6.02904048 C138.764242,6.24092369 138.687193,6.41428268 138.552358,6.56837956 C138.398261,6.72247644 138.224902,6.78026277 138.013019,6.78026277 L131.887668,6.78026277 L131.887668,29.2591453 C131.887668,29.4710285 131.81062,29.6443875 131.675785,29.7984844 C131.521688,29.9525813 131.348329,30.0103676 131.136446,30.0103676 L127.418859,30.0103676 C127.206975,30.0103676 127.033616,29.9333192 126.87952,29.7984844 C126.725423,29.6443875 126.667636,29.4710285 126.667636,29.2591453 L126.667636,6.78026277 L120.523023,6.78026277 C120.31114,6.78026277 120.137781,6.70321433 119.983684,6.56837956 C119.829587,6.41428268 119.771801,6.24092369 119.771801,6.02904048 L119.771801,2.73521964 C119.771801,2.52333643 119.848849,2.34997744 119.983684,2.19588056 C120.137781,2.04178368 120.31114,1.98399735 120.523023,1.98399735 L138.013019,1.98399735 Z M250.349646,6.8380491 L245.784526,6.8380491 L245.784526,25.1563159 L250.349646,25.1370537 C251.659469,25.1370537 252.85372,24.9059084 253.95166,24.4436178 C255.049601,23.9813271 255.993444,23.3264154 256.78319,22.5174068 C257.592199,21.7083981 258.208587,20.7260305 258.670877,19.6088281 C259.133168,18.4916257 259.345051,17.2781128 259.345051,15.9682893 C259.345051,14.6584658 259.113906,13.4449529 258.670877,12.3470126 C258.208587,11.2298102 257.592199,10.2859668 256.78319,9.45769608 C255.974182,8.64868746 255.030338,7.99377571 253.95166,7.53148507 C252.85372,7.06919443 251.659469,6.8380491 250.349646,6.8380491 Z M186.014198,11.6343145 L185.898625,11.6343145 L181.969155,20.456361 L190.020717,20.456361 L186.014198,11.6343145 Z M158.084138,6.74173855 L151.554283,6.74173855 L151.554283,14.7162522 L158.084138,14.7162522 L158.084138,14.7547764 C158.623477,14.7547764 159.124292,14.6392037 159.605845,14.4273205 C160.087397,14.2154373 160.511164,13.9265056 160.857882,13.5412634 C161.223862,13.1752833 161.512794,12.7322548 161.724677,12.2314399 C161.93656,11.7306251 162.052133,11.2105481 162.052133,10.6519469 C162.052133,10.1126078 161.93656,9.61179297 161.724677,9.14950232 C161.512794,8.68721168 161.223862,8.26344526 160.857882,7.89746516 C160.491902,7.53148507 160.087397,7.26181553 159.605845,7.04993232 C159.124292,6.85731121 158.623477,6.74173855 158.084138,6.74173855 Z" id="Combined-Shape" fill="#023642"></path><g fill="#00AAA1" id="Path"><path d="M75.0644433,4.372499 C75.0644433,7.04993232 73.0033975,8.86057067 69.9599841,8.86057067 L52.7396576,8.84130856 C51.3335236,8.84130856 50.2741075,9.09171599 49.5228852,9.90072462 L31.6669091,28.9702137 C29.7792223,30.9734731 26.8706437,32.1099376 23.7501818,32.1099376 C23.7309197,32.1099376 5.18150763,32.1099376 5.18150763,32.1099376 C2.11883212,32.1099376 0.0770484406,30.4148719 0.0770484406,27.7759628 C0.0770484406,25.0985295 2.13809423,23.3071533 5.18150763,23.3071533 L22.3247857,23.3071533 C23.7501818,23.3071533 24.6169768,22.9604353 25.4067233,22.1321646 L43.185651,3.15898607 C45.1311241,1.09794028 47.55815,0.0576238724 51.3527857,0.0576238724 C51.3720478,0.0576238724 69.9792462,0.0576238724 69.9792462,0.0576238724 C73.0033975,0.0385242203 75.0644433,1.73358991 75.0644433,4.372499"></path><g fill-opacity="0.6"><path d="M29.4710285,14.2732236 C27.0825269,11.7306251 25.348937,9.90072462 25.348937,9.90072462 C24.5784526,9.09171599 23.7116576,8.84130856 22.2862614,8.84130856 L5.16224552,8.86057067 C2.09957001,8.86057067 0.0577863305,7.04993232 0.0577863305,4.372499 C0.0577863305,1.73358991 2.11883212,0.0385242203 5.16224552,0.0385242203 L23.7309197,0.0385242203 C26.8513816,0.0385242203 29.7792223,1.09794028 31.7054333,3.15898607 C31.7054333,3.15898607 33.4197611,5.00814864 35.7890007,7.53148507 L29.4710285,14.2732236 Z"></path><path d="M45.3622694,17.7981898 C47.7122468,20.3022641 49.4073125,22.1321646 49.4073125,22.1321646 C50.1777969,22.9604353 51.3335236,23.3071533 52.6626092,23.3071533 L69.9599841,23.2878912 C73.0226596,23.2878912 75.0644433,25.0792674 75.0644433,27.7759628 C75.0644433,30.4148719 73.0226596,32.1099376 69.9599841,32.1099376 L51.1794267,32.1099376 C47.5196257,32.1099376 45.0925999,30.9734731 43.3204857,29.0087379 C43.3204857,29.0087379 41.5291095,27.101789 39.0828215,24.5014041 L45.3622694,17.7981898 Z"></path></g></g></g></g></g></g></g></g></svg> 